<?xml version="1.0" encoding="iso-8859-1"?>
<!-- Generator: Adobe Illustrator 19.0.0, SVG Export Plug-In . SVG Version: 6.00 Build 0)  -->
<svg version="1.1" id="Layer_1" xmlns="http://www.w3.org/2000/svg" xmlns:xlink="http://www.w3.org/1999/xlink" x="0px" y="0px"
	 viewBox="0 0 512 512" style="enable-background:new 0 0 512 512;" xml:space="preserve">
<g>
	<g>
		<path d="M356.174,66.783C356.174,29.956,326.217,0,289.391,0c-24.937,0-49.713,13.832-62.108,38.362
			c-6.507-3.096-13.696-4.971-21.37-4.971c-21.737,0-40.095,14-47.01,33.391c-33.253,0-53.163,24.033-53.163,50.087
			c0,75.924,0.285,109.423,17.201,176.598c8.327,33.065,16.19,64.299,16.19,141.483v26.962c0,27.619,22.468,50.087,50.087,50.087
			h133.565c27.619,0,50.087-22.468,50.087-50.087v-26.962c0-77.185,7.864-108.418,16.19-141.483
			c17.25-68.503,17.201-103.082,17.201-176.598C406.261,89.251,383.793,66.783,356.174,66.783z M339.478,461.913
			c0,9.206-7.49,16.696-16.696,16.696H189.217c-9.206,0-16.696-7.49-16.696-16.696v-16.696h166.957V461.913z M372.87,136.447
			c-5.256-1.858-10.877-2.882-16.696-2.882c-27.619,0-50.087,22.468-50.087,50.087v66.783c0,9.206-7.49,16.696-16.696,16.696
			s-16.696-7.49-16.696-16.696v-66.783c0-27.619-22.468-50.087-50.087-50.087s-50.087,22.468-50.087,50.087
			c0,9.206-7.49,16.696-16.696,16.696c-6.829,0-13.065-4.269-15.551-10.622c-1.367-25.214-1.144-44.859-1.144-72.857
			c0-19.667,21.742-16.696,33.391-16.696c9.223,0,16.696-7.473,16.696-16.696c0-9.206,7.49-16.696,16.696-16.696
			c6.465,0,12.021,3.732,14.793,9.119c0.445,3.643,1.174,7.278,2.236,10.886c0.017,0.082,0.043,0.159,0.062,0.24
			c6.623,22.379,35.95,14.118,32.731-6.157c-0.224-4.254-1.014-8.326-2.236-12.237c-0.457-19.321,16.907-35.242,35.891-35.242
			c18.413,0,33.391,14.978,33.391,33.391c0,3.827-0.636,7.577-1.897,11.142c-3.822,10.823,4.207,22.25,15.745,22.25h19.543
			c9.206,0,16.696,7.49,16.696,16.696V136.447z"/>
	</g>
</g>
<g>
</g>
<g>
</g>
<g>
</g>
<g>
</g>
<g>
</g>
<g>
</g>
<g>
</g>
<g>
</g>
<g>
</g>
<g>
</g>
<g>
</g>
<g>
</g>
<g>
</g>
<g>
</g>
<g>
</g>
</svg>
