<?xml version="1.0" encoding="UTF-8"?>
<!--Generator: Apple Native CoreSVG 149-->
<!DOCTYPE svg
PUBLIC "-//W3C//DTD SVG 1.1//EN"
       "http://www.w3.org/Graphics/SVG/1.1/DTD/svg11.dtd">
<svg version="1.1" xmlns="http://www.w3.org/2000/svg" xmlns:xlink="http://www.w3.org/1999/xlink" width="3300" height="2200">
 <!--glyph: "uni100202.medium", point size: 100.0, font version: "17.0d9e1", template writer version: "59"-->
 <style>.hierarchical-0:secondary {fill:#4D4D4D}
.hierarchical-1:primary {fill:#212121}

.SFSymbolsPreview212121 {fill:#212121;opacity:1.0}
.SFSymbolsPreview4D4D4D {fill:#4D4D4D;opacity:1.0}
</style>
 <g id="Notes">
  <rect height="2200" id="artboard" style="fill:white;opacity:1" width="3300" x="0" y="0"/>
  <line style="fill:none;stroke:black;opacity:1;stroke-width:0.5;" x1="263" x2="3036" y1="292" y2="292"/>
  <text style="stroke:none;fill:black;font-family:sans-serif;font-size:13;font-weight:bold;" transform="matrix(1 0 0 1 263 322)">Weight/Scale Variations</text>
  <text style="stroke:none;fill:black;font-family:sans-serif;font-size:13;text-anchor:middle;" transform="matrix(1 0 0 1 559.711 322)">Ultralight</text>
  <text style="stroke:none;fill:black;font-family:sans-serif;font-size:13;text-anchor:middle;" transform="matrix(1 0 0 1 856.422 322)">Thin</text>
  <text style="stroke:none;fill:black;font-family:sans-serif;font-size:13;text-anchor:middle;" transform="matrix(1 0 0 1 1153.13 322)">Light</text>
  <text style="stroke:none;fill:black;font-family:sans-serif;font-size:13;text-anchor:middle;" transform="matrix(1 0 0 1 1449.84 322)">Regular</text>
  <text style="stroke:none;fill:black;font-family:sans-serif;font-size:13;text-anchor:middle;" transform="matrix(1 0 0 1 1746.56 322)">Medium</text>
  <text style="stroke:none;fill:black;font-family:sans-serif;font-size:13;text-anchor:middle;" transform="matrix(1 0 0 1 2043.27 322)">Semibold</text>
  <text style="stroke:none;fill:black;font-family:sans-serif;font-size:13;text-anchor:middle;" transform="matrix(1 0 0 1 2339.98 322)">Bold</text>
  <text style="stroke:none;fill:black;font-family:sans-serif;font-size:13;text-anchor:middle;" transform="matrix(1 0 0 1 2636.69 322)">Heavy</text>
  <text style="stroke:none;fill:black;font-family:sans-serif;font-size:13;text-anchor:middle;" transform="matrix(1 0 0 1 2933.4 322)">Black</text>
  <line style="fill:none;stroke:black;opacity:1;stroke-width:0.5;" x1="263" x2="3036" y1="1903" y2="1903"/>
  <g transform="matrix(1 0 0 1 263 1933)">
   <path d="M9.24805 0.830078Q10.8691 0.830078 12.2949 0.214844Q13.7207-0.400391 14.8096-1.49414Q15.8984-2.58789 16.5186-4.01367Q17.1387-5.43945 17.1387-7.05078Q17.1387-8.66211 16.5186-10.0879Q15.8984-11.5137 14.8047-12.6074Q13.7109-13.7012 12.2852-14.3164Q10.8594-14.9316 9.23828-14.9316Q7.62695-14.9316 6.20117-14.3164Q4.77539-13.7012 3.69141-12.6074Q2.60742-11.5137 1.9873-10.0879Q1.36719-8.66211 1.36719-7.05078Q1.36719-5.43945 1.9873-4.01367Q2.60742-2.58789 3.69629-1.49414Q4.78516-0.400391 6.21094 0.214844Q7.63672 0.830078 9.24805 0.830078ZM9.24805-0.654297Q7.91992-0.654297 6.7627-1.14746Q5.60547-1.64062 4.73145-2.51953Q3.85742-3.39844 3.36426-4.56055Q2.87109-5.72266 2.87109-7.05078Q2.87109-8.37891 3.35938-9.54102Q3.84766-10.7031 4.72168-11.582Q5.5957-12.4609 6.75293-12.9541Q7.91016-13.4473 9.23828-13.4473Q10.5762-13.4473 11.7334-12.9541Q12.8906-12.4609 13.7695-11.582Q14.6484-10.7031 15.1465-9.54102Q15.6445-8.37891 15.6445-7.05078Q15.6445-5.72266 15.1514-4.56055Q14.6582-3.39844 13.7842-2.51953Q12.9102-1.64062 11.748-1.14746Q10.5859-0.654297 9.24805-0.654297ZM5.83984-7.04102Q5.83984-6.71875 6.04492-6.51855Q6.25-6.31836 6.5918-6.31836L8.50586-6.31836L8.50586-4.39453Q8.50586-4.0625 8.70605-3.85742Q8.90625-3.65234 9.22852-3.65234Q9.56055-3.65234 9.76562-3.85742Q9.9707-4.0625 9.9707-4.39453L9.9707-6.31836L11.8945-6.31836Q12.2266-6.31836 12.4316-6.51855Q12.6367-6.71875 12.6367-7.04102Q12.6367-7.37305 12.4316-7.57812Q12.2266-7.7832 11.8945-7.7832L9.9707-7.7832L9.9707-9.69727Q9.9707-10.0391 9.76562-10.2441Q9.56055-10.4492 9.22852-10.4492Q8.90625-10.4492 8.70605-10.2441Q8.50586-10.0391 8.50586-9.69727L8.50586-7.7832L6.5918-7.7832Q6.25-7.7832 6.04492-7.57812Q5.83984-7.37305 5.83984-7.04102Z"/>
  </g>
  <g transform="matrix(1 0 0 1 281.867 1933)">
   <path d="M11.709 2.91016Q13.75 2.91016 15.5518 2.12891Q17.3535 1.34766 18.7305-0.0292969Q20.1074-1.40625 20.8887-3.20801Q21.6699-5.00977 21.6699-7.05078Q21.6699-9.0918 20.8887-10.8936Q20.1074-12.6953 18.7305-14.0723Q17.3535-15.4492 15.5469-16.2305Q13.7402-17.0117 11.6992-17.0117Q9.6582-17.0117 7.85645-16.2305Q6.05469-15.4492 4.68262-14.0723Q3.31055-12.6953 2.5293-10.8936Q1.74805-9.0918 1.74805-7.05078Q1.74805-5.00977 2.5293-3.20801Q3.31055-1.40625 4.6875-0.0292969Q6.06445 1.34766 7.86621 2.12891Q9.66797 2.91016 11.709 2.91016ZM11.709 1.25Q9.98047 1.25 8.47656 0.605469Q6.97266-0.0390625 5.83496-1.17676Q4.69727-2.31445 4.05762-3.81836Q3.41797-5.32227 3.41797-7.05078Q3.41797-8.7793 4.05762-10.2832Q4.69727-11.7871 5.83008-12.9297Q6.96289-14.0723 8.4668-14.7119Q9.9707-15.3516 11.6992-15.3516Q13.4277-15.3516 14.9316-14.7119Q16.4355-14.0723 17.5781-12.9297Q18.7207-11.7871 19.3652-10.2832Q20.0098-8.7793 20.0098-7.05078Q20.0098-5.32227 19.3701-3.81836Q18.7305-2.31445 17.5928-1.17676Q16.4551-0.0390625 14.9463 0.605469Q13.4375 1.25 11.709 1.25ZM7.39258-7.04102Q7.39258-6.68945 7.62695-6.46484Q7.86133-6.24023 8.23242-6.24023L10.8789-6.24023L10.8789-3.57422Q10.8789-3.21289 11.1035-2.9834Q11.3281-2.75391 11.6797-2.75391Q12.0508-2.75391 12.2852-2.9834Q12.5195-3.21289 12.5195-3.57422L12.5195-6.24023L15.1758-6.24023Q15.5371-6.24023 15.7715-6.46484Q16.0059-6.68945 16.0059-7.04102Q16.0059-7.41211 15.7715-7.6416Q15.5371-7.87109 15.1758-7.87109L12.5195-7.87109L12.5195-10.5176Q12.5195-10.8984 12.2852-11.1279Q12.0508-11.3574 11.6797-11.3574Q11.3281-11.3574 11.1035-11.1279Q10.8789-10.8984 10.8789-10.5176L10.8789-7.87109L8.23242-7.87109Q7.85156-7.87109 7.62207-7.6416Q7.39258-7.41211 7.39258-7.04102Z"/>
  </g>
  <g transform="matrix(1 0 0 1 305.646 1933)">
   <path d="M14.9707 5.66406Q17.0605 5.66406 18.96 5.01465Q20.8594 4.36523 22.4512 3.19336Q24.043 2.02148 25.2197 0.429688Q26.3965-1.16211 27.0459-3.06641Q27.6953-4.9707 27.6953-7.05078Q27.6953-9.14062 27.0459-11.04Q26.3965-12.9395 25.2197-14.5312Q24.043-16.123 22.4512-17.2998Q20.8594-18.4766 18.9551-19.126Q17.0508-19.7754 14.9609-19.7754Q12.8711-19.7754 10.9717-19.126Q9.07227-18.4766 7.48535-17.2998Q5.89844-16.123 4.72168-14.5312Q3.54492-12.9395 2.90039-11.04Q2.25586-9.14062 2.25586-7.05078Q2.25586-4.9707 2.90527-3.06641Q3.55469-1.16211 4.72656 0.429688Q5.89844 2.02148 7.49023 3.19336Q9.08203 4.36523 10.9814 5.01465Q12.8809 5.66406 14.9707 5.66406ZM14.9707 3.84766Q13.1641 3.84766 11.5283 3.2959Q9.89258 2.74414 8.53516 1.74805Q7.17773 0.751953 6.17676-0.610352Q5.17578-1.97266 4.62891-3.6084Q4.08203-5.24414 4.08203-7.05078Q4.08203-8.86719 4.62891-10.5029Q5.17578-12.1387 6.17188-13.501Q7.16797-14.8633 8.52539-15.8594Q9.88281-16.8555 11.5186-17.4023Q13.1543-17.9492 14.9609-17.9492Q16.7773-17.9492 18.4131-17.4023Q20.0488-16.8555 21.4111-15.8594Q22.7734-14.8633 23.7695-13.501Q24.7656-12.1387 25.3174-10.5029Q25.8691-8.86719 25.8691-7.05078Q25.8789-5.24414 25.332-3.6084Q24.7852-1.97266 23.7842-0.610352Q22.7832 0.751953 21.4209 1.74805Q20.0586 2.74414 18.4229 3.2959Q16.7871 3.84766 14.9707 3.84766ZM9.45312-7.04102Q9.45312-6.66016 9.71191-6.41113Q9.9707-6.16211 10.3711-6.16211L14.0625-6.16211L14.0625-2.46094Q14.0625-2.06055 14.3115-1.80664Q14.5605-1.55273 14.9414-1.55273Q15.3516-1.55273 15.6055-1.80664Q15.8594-2.06055 15.8594-2.46094L15.8594-6.16211L19.5605-6.16211Q19.9609-6.16211 20.2148-6.41113Q20.4688-6.66016 20.4688-7.04102Q20.4688-7.45117 20.2148-7.70508Q19.9609-7.95898 19.5605-7.95898L15.8594-7.95898L15.8594-11.6504Q15.8594-12.0605 15.6055-12.3145Q15.3516-12.5684 14.9414-12.5684Q14.5605-12.5684 14.3115-12.3096Q14.0625-12.0508 14.0625-11.6504L14.0625-7.95898L10.3711-7.95898Q9.96094-7.95898 9.70703-7.70508Q9.45312-7.45117 9.45312-7.04102Z"/>
  </g>
  <text style="stroke:none;fill:black;font-family:sans-serif;font-size:13;font-weight:bold;" transform="matrix(1 0 0 1 263 1953)">Design Variations</text>
  <text style="stroke:none;fill:black;font-family:sans-serif;font-size:13;" transform="matrix(1 0 0 1 263 1971)">Symbols are supported in up to nine weights and three scales.</text>
  <text style="stroke:none;fill:black;font-family:sans-serif;font-size:13;" transform="matrix(1 0 0 1 263 1989)">For optimal layout with text and other symbols, vertically align</text>
  <text style="stroke:none;fill:black;font-family:sans-serif;font-size:13;" transform="matrix(1 0 0 1 263 2007)">symbols with the adjacent text.</text>
  <line style="fill:none;stroke:#00AEEF;stroke-width:0.5;opacity:1.0;" x1="776" x2="776" y1="1919" y2="1933"/>
  <g transform="matrix(1 0 0 1 776 1933)">
   <path d="M3.31055 0.15625Q3.70117 0.15625 3.91602-0.00976562Q4.13086-0.175781 4.26758-0.585938L5.52734-4.0332L11.2891-4.0332L12.5488-0.585938Q12.6855-0.175781 12.9004-0.00976562Q13.1152 0.15625 13.4961 0.15625Q13.8867 0.15625 14.1162-0.0585938Q14.3457-0.273438 14.3457-0.644531Q14.3457-0.869141 14.2383-1.17188L9.6582-13.3691Q9.48242-13.8184 9.17969-14.043Q8.87695-14.2676 8.4082-14.2676Q7.5-14.2676 7.17773-13.3789L2.59766-1.16211Q2.49023-0.859375 2.49023-0.634766Q2.49023-0.263672 2.70996-0.0537109Q2.92969 0.15625 3.31055 0.15625ZM6.00586-5.51758L8.37891-12.0898L8.42773-12.0898L10.8008-5.51758Z"/>
  </g>
  <line style="fill:none;stroke:#00AEEF;stroke-width:0.5;opacity:1.0;" x1="793.197" x2="793.197" y1="1919" y2="1933"/>
  <text style="stroke:none;fill:black;font-family:sans-serif;font-size:13;font-weight:bold;" transform="matrix(1 0 0 1 776 1953)">Margins</text>
  <text style="stroke:none;fill:black;font-family:sans-serif;font-size:13;" transform="matrix(1 0 0 1 776 1971)">Leading and trailing margins on the left and right side of each symbol</text>
  <text style="stroke:none;fill:black;font-family:sans-serif;font-size:13;" transform="matrix(1 0 0 1 776 1989)">can be adjusted by modifying the x-location of the margin guidelines.</text>
  <text style="stroke:none;fill:black;font-family:sans-serif;font-size:13;" transform="matrix(1 0 0 1 776 2007)">Modifications are automatically applied proportionally to all</text>
  <text style="stroke:none;fill:black;font-family:sans-serif;font-size:13;" transform="matrix(1 0 0 1 776 2025)">scales and weights.</text>
  <g transform="matrix(1 0 0 1 1289 1933)">
   <path d="M2.8418 1.86523L4.54102 3.57422Q5.18555 4.22852 5.90332 4.17969Q6.62109 4.13086 7.31445 3.35938L18.0078-8.42773L17.041-9.4043L6.42578 2.27539Q6.16211 2.57812 5.89355 2.61719Q5.625 2.65625 5.27344 2.30469L4.10156 1.14258Q3.75 0.791016 3.79395 0.522461Q3.83789 0.253906 4.14062-0.0195312L15.6152-10.8203L14.6387-11.7871L3.04688-0.898438Q2.30469-0.214844 2.25098 0.498047Q2.19727 1.21094 2.8418 1.86523ZM9.25781-16.3281Q8.94531-16.0254 8.90625-15.6348Q8.86719-15.2441 9.04297-14.9512Q9.21875-14.6777 9.55566-14.541Q9.89258-14.4043 10.3809-14.5215Q11.4746-14.7754 12.5977-14.7314Q13.7207-14.6875 14.7949-13.9844L14.209-12.5293Q13.9551-11.9043 14.0674-11.4404Q14.1797-10.9766 14.5801-10.5664L16.875-8.25195Q17.2363-7.88086 17.5781-7.82227Q17.9199-7.76367 18.3398-7.8418L19.4043-8.03711L20.0684-7.36328L20.0293-6.80664Q20-6.43555 20.1221-6.12305Q20.2441-5.81055 20.6055-5.44922L21.3672-4.70703Q21.7285-4.3457 22.1533-4.33105Q22.5781-4.31641 22.9297-4.66797L25.8398-7.58789Q26.1914-7.93945 26.1816-8.35449Q26.1719-8.76953 25.8105-9.13086L25.0391-9.89258Q24.6875-10.2539 24.3799-10.3857Q24.0723-10.5176 23.7109-10.4883L23.1348-10.4395L22.4902-11.0742L22.7344-12.1973Q22.832-12.6172 22.6953-12.9834Q22.5586-13.3496 22.1191-13.7891L19.9219-15.9766Q18.6719-17.2168 17.2607-17.8369Q15.8496-18.457 14.4189-18.4814Q12.9883-18.5059 11.665-17.959Q10.3418-17.4121 9.25781-16.3281ZM10.752-15.957Q11.6602-16.6211 12.7002-16.9043Q13.7402-17.1875 14.8047-17.085Q15.8691-16.9824 16.8701-16.5137Q17.8711-16.0449 18.7012-15.2051L21.1328-12.793Q21.3086-12.6172 21.3525-12.4512Q21.3965-12.2852 21.3379-12.0312L21.0156-10.5469L22.5195-9.0625L23.5059-9.12109Q23.6914-9.13086 23.7891-9.09668Q23.8867-9.0625 24.0332-8.91602L24.6094-8.33984L22.168-5.89844L21.5918-6.47461Q21.4453-6.62109 21.4062-6.71875Q21.3672-6.81641 21.377-7.01172L21.4453-7.98828L19.9512-9.47266L18.4277-9.21875Q18.1836-9.16992 18.042-9.2041Q17.9004-9.23828 17.7148-9.41406L15.7129-11.416Q15.5176-11.5918 15.4932-11.7529Q15.4688-11.9141 15.5859-12.1875L16.4648-14.2773Q15.293-15.3711 13.8281-15.791Q12.3633-16.2109 10.8398-15.7617Q10.7227-15.7324 10.6885-15.8057Q10.6543-15.8789 10.752-15.957Z"/>
  </g>
  <text style="stroke:none;fill:black;font-family:sans-serif;font-size:13;font-weight:bold;" transform="matrix(1 0 0 1 1289 1953)">Exporting</text>
  <text style="stroke:none;fill:black;font-family:sans-serif;font-size:13;" transform="matrix(1 0 0 1 1289 1971)">Symbols should be outlined when exporting to ensure the</text>
  <text style="stroke:none;fill:black;font-family:sans-serif;font-size:13;" transform="matrix(1 0 0 1 1289 1989)">design is preserved when submitting to Xcode.</text>
  <text id="template-version" style="stroke:none;fill:black;font-family:sans-serif;font-size:13;text-anchor:end;" transform="matrix(1 0 0 1 3036 1933)">Template v.3.0</text>
  <text style="stroke:none;fill:black;font-family:sans-serif;font-size:13;text-anchor:end;" transform="matrix(1 0 0 1 3036 1951)">Requires Xcode 13 or greater</text>
  <text id="descriptive-name" style="stroke:none;fill:black;font-family:sans-serif;font-size:13;text-anchor:end;" transform="matrix(1 0 0 1 3036 1969)">Generated from square.and.arrow.up</text>
  <text style="stroke:none;fill:black;font-family:sans-serif;font-size:13;text-anchor:end;" transform="matrix(1 0 0 1 3036 1987)">Typeset at 100 points</text>
  <text style="stroke:none;fill:black;font-family:sans-serif;font-size:13;" transform="matrix(1 0 0 1 263 726)">Small</text>
  <text style="stroke:none;fill:black;font-family:sans-serif;font-size:13;" transform="matrix(1 0 0 1 263 1156)">Medium</text>
  <text style="stroke:none;fill:black;font-family:sans-serif;font-size:13;" transform="matrix(1 0 0 1 263 1586)">Large</text>
 </g>
 <g id="Guides">
  <g id="H-reference" style="fill:#27AAE1;stroke:none;" transform="matrix(1 0 0 1 339 696)">
   <path d="M0.993347 0L3.6377 0L29.3282-67.1326L30.0301-67.1326L30.0301-70.459L28.1227-70.459ZM11.6882-24.4797L46.9818-24.4797L46.2311-26.7288L12.4382-26.7288ZM55.1193 0L57.7637 0L30.6381-70.459L29.4327-70.459L29.4327-67.1326Z"/>
  </g>
  <line id="Baseline-S" style="fill:none;stroke:#27AAE1;opacity:1;stroke-width:0.5;" x1="263" x2="3036" y1="696" y2="696"/>
  <line id="Capline-S" style="fill:none;stroke:#27AAE1;opacity:1;stroke-width:0.5;" x1="263" x2="3036" y1="625.541" y2="625.541"/>
  <g id="H-reference" style="fill:#27AAE1;stroke:none;" transform="matrix(1 0 0 1 339 1126)">
   <path d="M0.993347 0L3.6377 0L29.3282-67.1326L30.0301-67.1326L30.0301-70.459L28.1227-70.459ZM11.6882-24.4797L46.9818-24.4797L46.2311-26.7288L12.4382-26.7288ZM55.1193 0L57.7637 0L30.6381-70.459L29.4327-70.459L29.4327-67.1326Z"/>
  </g>
  <line id="Baseline-M" style="fill:none;stroke:#27AAE1;opacity:1;stroke-width:0.5;" x1="263" x2="3036" y1="1126" y2="1126"/>
  <line id="Capline-M" style="fill:none;stroke:#27AAE1;opacity:1;stroke-width:0.5;" x1="263" x2="3036" y1="1055.54" y2="1055.54"/>
  <g id="H-reference" style="fill:#27AAE1;stroke:none;" transform="matrix(1 0 0 1 339 1556)">
   <path d="M0.993347 0L3.6377 0L29.3282-67.1326L30.0301-67.1326L30.0301-70.459L28.1227-70.459ZM11.6882-24.4797L46.9818-24.4797L46.2311-26.7288L12.4382-26.7288ZM55.1193 0L57.7637 0L30.6381-70.459L29.4327-70.459L29.4327-67.1326Z"/>
  </g>
  <line id="Baseline-L" style="fill:none;stroke:#27AAE1;opacity:1;stroke-width:0.5;" x1="263" x2="3036" y1="1556" y2="1556"/>
  <line id="Capline-L" style="fill:none;stroke:#27AAE1;opacity:1;stroke-width:0.5;" x1="263" x2="3036" y1="1485.54" y2="1485.54"/>
  <line id="left-margin-Regular-M" style="fill:none;stroke:#00AEEF;stroke-width:0.5;opacity:1.0;" x1="1394.06" x2="1394.06" y1="1030.79" y2="1150.12"/>
  <line id="right-margin-Regular-M" style="fill:none;stroke:#00AEEF;stroke-width:0.5;opacity:1.0;" x1="1505.63" x2="1505.63" y1="1030.79" y2="1150.12"/>
 </g>
 <g id="Symbols">
  <g id="Black-L" transform="matrix(1 0 0 1 2856.76 1556)">
   <path class="hierarchical-0:secondary SFSymbolsPreview4D4D4D" d="M39.9902 33.1055L113.33 33.1055Q124.756 33.1055 130.981 26.9043Q137.207 20.7031 137.207 9.32617L137.207-49.5605Q137.207-60.9375 130.981-67.1387Q124.756-73.3398 113.33-73.3398L97.9492-73.3398L97.9492-53.125L110.596-53.125Q113.77-53.125 115.381-51.6113Q116.992-50.0977 116.992-46.6797L116.992 6.44531Q116.992 9.86328 115.381 11.377Q113.77 12.8906 110.596 12.8906L42.6758 12.8906Q39.5508 12.8906 37.9395 11.377Q36.3281 9.86328 36.3281 6.44531L36.3281-46.6797Q36.3281-50.0977 37.9395-51.6113Q39.5508-53.125 42.6758-53.125L55.7617-53.125L55.7617-73.3398L39.9902-73.3398Q28.5645-73.3398 22.3145-67.1387Q16.0645-60.9375 16.0645-49.5605L16.0645 9.32617Q16.0645 20.7031 22.3145 26.9043Q28.5645 33.1055 39.9902 33.1055Z"/>
   <path class="hierarchical-1:primary SFSymbolsPreview212121" d="M76.6602-20.2148Q80.3711-20.2148 82.9102-22.8271Q85.4492-25.4395 85.4492-28.9551L85.4492-87.7441L84.668-96.9727L87.1582-92.041L93.457-85.3516Q95.752-82.8613 99.0723-82.8613Q101.953-82.8613 104.272-84.8633Q106.592-86.8652 106.592-90.0879Q106.592-91.6992 106.006-92.9443Q105.42-94.1895 104.297-95.3125L83.7891-114.941Q82.0312-116.65 80.2246-117.358Q78.418-118.066 76.6602-118.066Q74.8535-118.066 73.0469-117.358Q71.2402-116.65 69.4824-114.941L48.9746-95.3125Q47.8516-94.1895 47.2656-92.9443Q46.6797-91.6992 46.6797-90.0879Q46.6797-86.8652 48.9746-84.8633Q51.2695-82.8613 54.1504-82.8613Q57.5195-82.8613 59.8145-85.3516L66.1133-92.041L68.6035-96.9727L67.8223-87.7441L67.8223-28.9551Q67.8223-25.4395 70.3613-22.8271Q72.9004-20.2148 76.6602-20.2148Z"/>
  </g>
  <g id="Heavy-L" transform="matrix(1 0 0 1 2561.32 1556)">
   <path class="hierarchical-0:secondary SFSymbolsPreview4D4D4D" d="M38.826 32.518L111.958 32.518Q122.923 32.518 128.803 26.6567Q134.683 20.7954 134.683 9.90219L134.683-50.148Q134.683-61.0413 128.803-66.8968Q122.923-72.7524 111.958-72.7524L96.0014-72.7524L96.0014-55.2689L109.824-55.2689Q113.435-55.2689 115.318-53.4786Q117.2-51.6884 117.2-47.8439L117.2 7.59811Q117.2 11.454 115.318 13.2385Q113.435 15.023 109.824 15.023L40.9241 15.023Q37.3268 15.023 35.4561 13.2385Q33.5854 11.454 33.5854 7.59811L33.5854-47.8439Q33.5854-51.6884 35.4561-53.4786Q37.3268-55.2689 40.9241-55.2689L55.0934-55.2689L55.0934-72.7524L38.826-72.7524Q27.8732-72.7524 21.9688-66.9025Q16.0645-61.0527 16.0645-50.148L16.0645 9.90219Q16.0645 20.8069 21.9688 26.6624Q27.8732 32.518 38.826 32.518Z"/>
   <path class="hierarchical-1:primary SFSymbolsPreview212121" d="M75.3922-19.7426Q78.6423-19.7426 80.8819-22.0322Q83.1215-24.3217 83.1215-27.4109L83.1215-88.0554L82.444-97.2954L85.556-92.2714L92.7887-84.6252Q94.8181-82.412 97.7699-82.412Q100.362-82.412 102.405-84.1949Q104.448-85.9779 104.448-88.8321Q104.448-90.2588 103.92-91.3712Q103.391-92.4835 102.396-93.4914L81.5765-113.501Q80.0377-114.991 78.4843-115.607Q76.931-116.222 75.3922-116.222Q73.8167-116.222 72.2633-115.607Q70.71-114.991 69.1711-113.501L48.3521-93.4914Q47.3442-92.4835 46.822-91.3712Q46.2997-90.2588 46.2997-88.8321Q46.2997-85.9779 48.312-84.1949Q50.3242-82.412 52.9175-82.412Q55.9174-82.412 57.9475-84.6252L65.1917-92.2714L68.3037-97.2954L67.6262-88.0554L67.6262-27.4109Q67.6262-24.3217 69.8658-22.0322Q72.1054-19.7426 75.3922-19.7426Z"/>
  </g>
  <g id="Bold-L" transform="matrix(1 0 0 1 2266.02 1556)">
   <path class="hierarchical-0:secondary SFSymbolsPreview4D4D4D" d="M37.5244 31.8604L110.425 31.8604Q120.874 31.8604 126.367 26.3794Q131.86 20.8984 131.86 10.5469L131.86-50.8057Q131.86-61.1572 126.367-66.626Q120.874-72.0947 110.425-72.0947L93.8232-72.0947L93.8232-57.666L108.96-57.666Q113.062-57.666 115.247-55.5664Q117.432-53.4668 117.432-49.1455L117.432 8.88672Q117.432 13.2324 115.247 15.3198Q113.062 17.4072 108.96 17.4072L38.9648 17.4072Q34.8389 17.4072 32.6782 15.3198Q30.5176 13.2324 30.5176 8.88672L30.5176-49.1455Q30.5176-53.4668 32.6782-55.5664Q34.8389-57.666 38.9648-57.666L54.3457-57.666L54.3457-72.0947L37.5244-72.0947Q27.0996-72.0947 21.582-66.6382Q16.0645-61.1816 16.0645-50.8057L16.0645 10.5469Q16.0645 20.9229 21.582 26.3916Q27.0996 31.8604 37.5244 31.8604Z"/>
   <path class="hierarchical-1:primary SFSymbolsPreview212121" d="M73.9746-19.2139Q76.709-19.2139 78.6133-21.1426Q80.5176-23.0713 80.5176-25.6836L80.5176-88.4033L79.9561-97.6562L83.7646-92.5293L92.041-83.8135Q93.7744-81.9092 96.3135-81.9092Q98.584-81.9092 100.317-83.4473Q102.051-84.9854 102.051-87.4268Q102.051-88.6475 101.587-89.6118Q101.123-90.5762 100.269-91.4551L79.1016-111.89Q77.8076-113.135 76.5381-113.647Q75.2686-114.16 73.9746-114.16Q72.6562-114.16 71.3867-113.647Q70.1172-113.135 68.8232-111.89L47.6562-91.4551Q46.7773-90.5762 46.3257-89.6118Q45.874-88.6475 45.874-87.4268Q45.874-84.9854 47.5708-83.4473Q49.2676-81.9092 51.5381-81.9092Q54.126-81.9092 55.8594-83.8135L64.1602-92.5293L67.9688-97.6562L67.4072-88.4033L67.4072-25.6836Q67.4072-23.0713 69.3115-21.1426Q71.2158-19.2139 73.9746-19.2139Z"/>
  </g>
  <g id="Semibold-L" transform="matrix(1 0 0 1 1970.28 1556)">
   <path class="hierarchical-0:secondary SFSymbolsPreview4D4D4D" d="M36.6272 31.4072L109.367 31.4072Q119.461 31.4072 124.688 26.1883Q129.914 20.9694 129.914 10.9909L129.914-51.2589Q129.914-61.2373 124.688-66.4394Q119.461-71.6415 109.367-71.6415L92.321-71.6415L92.321-59.3193L108.365-59.3193Q112.804-59.3193 115.198-57.0061Q117.592-54.6928 117.592-50.0427L117.592 9.77554Q117.592 14.4585 115.198 16.7549Q112.804 19.0514 108.365 19.0514L37.6137 19.0514Q33.1238 19.0514 30.7632 16.7549Q28.4027 14.4585 28.4027 9.77554L28.4027-50.0427Q28.4027-54.6928 30.7632-57.0061Q33.1238-59.3193 37.6137-59.3193L53.83-59.3193L53.83-71.6415L36.6272-71.6415Q26.5663-71.6415 21.3154-66.4558Q16.0645-61.2701 16.0645-51.2589L16.0645 10.9909Q16.0645 21.003 21.3154 26.2051Q26.5663 31.4072 36.6272 31.4072Z"/>
   <path class="hierarchical-1:primary SFSymbolsPreview212121" d="M72.9973-18.8492Q75.3761-18.8492 77.0493-20.5292Q78.7224-22.2092 78.7224-24.4926L78.7224-88.6436L78.241-97.905L82.5294-92.7071L91.5253-83.2535Q93.0542-81.5628 95.3094-81.5628Q97.3579-81.5628 98.8777-82.9319Q100.397-84.301 100.397-86.4578Q100.397-87.5366 99.9783-88.3987Q99.559-89.2609 98.8022-90.0513L77.3956-110.779Q76.2703-111.855 75.1961-112.297Q74.1219-112.738 72.9973-112.738Q71.8567-112.738 70.7825-112.297Q69.7083-111.855 68.5829-110.779L47.1764-90.0513Q46.386-89.2609 45.9835-88.3987Q45.5811-87.5366 45.5811-86.4578Q45.5811-84.301 47.06-82.9319Q48.539-81.5628 50.5875-81.5628Q52.8908-81.5628 54.4197-83.2535L63.4491-92.7071L67.7376-97.905L67.2562-88.6436L67.2562-24.4926Q67.2562-22.2092 68.9293-20.5292Q70.6024-18.8492 72.9973-18.8492Z"/>
  </g>
  <g id="Medium-L" transform="matrix(1 0 0 1 1674.3 1556)">
   <path class="hierarchical-0:secondary SFSymbolsPreview4D4D4D" d="M35.9459 31.0631L108.566 31.0631Q118.39 31.0631 123.414 26.0433Q128.439 21.0236 128.439 11.3281L128.439-51.6029Q128.439-61.2976 123.414-66.2979Q118.39-71.2982 108.566-71.2982L91.1827-71.2982L91.1827-60.5721L107.913-60.5721Q112.608-60.5721 115.161-58.0975Q117.713-55.6229 117.713-50.724L117.713 10.4492Q117.713 15.3885 115.161 17.8432Q112.608 20.298 107.913 20.298L36.5898 20.298Q31.823 20.298 29.311 17.8432Q26.799 15.3885 26.799 10.4492L26.799-50.724Q26.799-55.6229 29.311-58.0975Q31.823-60.5721 36.5898-60.5721L53.4393-60.5721L53.4393-71.2982L35.9459-71.2982Q26.162-71.2982 21.1132-66.3181Q16.0645-61.338 16.0645-51.6029L16.0645 11.3281Q16.0645 21.0632 21.1132 26.0632Q26.162 31.0631 35.9459 31.0631Z"/>
   <path class="hierarchical-1:primary SFSymbolsPreview212121" d="M72.2557-18.573Q74.3652-18.573 75.8633-20.0642Q77.3613-21.5553 77.3613-23.5901L77.3613-88.8252L76.9402-98.0934L81.5926-92.8421L91.1346-82.8293Q92.5087-81.2996 94.548-81.2996Q96.4279-81.2996 97.7863-82.5409Q99.1447-83.7822 99.1447-85.7239Q99.1447-86.6943 98.7587-87.479Q98.3727-88.2637 97.6906-88.9862L76.1017-109.937Q75.1045-110.885 74.1787-111.272Q73.2529-111.66 72.2557-111.66Q71.2502-111.66 70.3243-111.272Q69.3985-110.885 68.4013-109.937L46.8124-88.9862Q46.0899-88.2637 45.7241-87.479Q45.3583-86.6943 45.3583-85.7239Q45.3583-83.7822 46.6724-82.5409Q47.9866-81.2996 49.8665-81.2996Q51.9539-81.2996 53.3279-82.8293L62.9105-92.8421L67.5629-98.0934L67.1417-88.8252L67.1417-23.5901Q67.1417-21.5553 68.6398-20.0642Q70.1378-18.573 72.2557-18.573Z"/>
  </g>
  <g id="Regular-L" transform="matrix(1 0 0 1 1378.56 1556)">
   <path class="hierarchical-0:secondary SFSymbolsPreview4D4D4D" d="M35.0586 30.6152L107.52 30.6152Q116.992 30.6152 121.753 25.8545Q126.514 21.0938 126.514 11.7676L126.514-52.0508Q126.514-61.377 121.753-66.1133Q116.992-70.8496 107.52-70.8496L89.6973-70.8496L89.6973-62.207L107.324-62.207Q112.354-62.207 115.112-59.5215Q117.871-56.8359 117.871-51.6113L117.871 11.3281Q117.871 16.6016 115.112 19.2627Q112.354 21.9238 107.324 21.9238L35.2539 21.9238Q30.127 21.9238 27.417 19.2627Q24.707 16.6016 24.707 11.3281L24.707-51.6113Q24.707-56.8359 27.417-59.5215Q30.127-62.207 35.2539-62.207L52.9297-62.207L52.9297-70.8496L35.0586-70.8496Q25.6348-70.8496 20.8496-66.1377Q16.0645-61.4258 16.0645-52.0508L16.0645 11.7676Q16.0645 21.1426 20.8496 25.8789Q25.6348 30.6152 35.0586 30.6152Z"/>
   <path class="hierarchical-1:primary SFSymbolsPreview212121" d="M71.2891-18.2129Q73.0469-18.2129 74.3164-19.458Q75.5859-20.7031 75.5859-22.4121L75.5859-89.0625L75.2441-98.3398L80.3711-93.0176L90.625-82.2754Q91.7969-80.957 93.5547-80.957Q95.2148-80.957 96.3623-82.0312Q97.5098-83.1055 97.5098-84.7656Q97.5098-85.5957 97.168-86.2793Q96.8262-86.9629 96.2402-87.5977L74.4141-108.838Q73.584-109.619 72.8516-109.937Q72.1191-110.254 71.2891-110.254Q70.459-110.254 69.7266-109.937Q68.9941-109.619 68.1641-108.838L46.3379-87.5977Q45.7031-86.9629 45.3857-86.2793Q45.0684-85.5957 45.0684-84.7656Q45.0684-83.1055 46.167-82.0312Q47.2656-80.957 48.9258-80.957Q50.7324-80.957 51.9043-82.2754L62.207-93.0176L67.334-98.3398L66.9922-89.0625L66.9922-22.4121Q66.9922-20.7031 68.2617-19.458Q69.5312-18.2129 71.2891-18.2129Z"/>
  </g>
  <g id="Light-L" transform="matrix(1 0 0 1 1082.77 1556)">
   <path class="hierarchical-0:secondary SFSymbolsPreview4D4D4D" d="M34.0294 29.7981L106.702 29.7981Q115.615 29.7981 120.141 25.2415Q124.667 20.6848 124.667 11.9186L124.667-53.2318Q124.667-61.9972 120.141-66.5371Q115.615-71.077 106.702-71.077L88.5315-71.077L88.5315-64.4623L106.522-64.4623Q112.006-64.4623 115.029-61.5345Q118.053-58.6067 118.053-52.8976L118.053 11.5852Q118.053 17.3279 115.029 20.2389Q112.006 23.1499 106.522 23.1499L34.2094 23.1499Q28.5675 23.1499 25.6229 20.2389Q22.6784 17.3279 22.6784 11.5852L22.6784-52.8976Q22.6784-58.6067 25.6229-61.5345Q28.5675-64.4623 34.2094-64.4623L52.2789-64.4623L52.2789-71.077L34.0294-71.077Q25.1503-71.077 20.6074-66.5768Q16.0645-62.0766 16.0645-53.2318L16.0645 11.9186Q16.0645 20.7642 20.6074 25.2811Q25.1503 29.7981 34.0294 29.7981Z"/>
   <path class="hierarchical-1:primary SFSymbolsPreview212121" d="M70.3659-18.3037Q71.7148-18.3037 72.6891-19.2612Q73.6633-20.2187 73.6633-21.534L73.6633-90.8943L73.4123-99.929L79.7203-93.4715L90.9882-81.897Q91.9334-80.8662 93.2671-80.8662Q94.5038-80.8662 95.3938-81.7135Q96.2837-82.5607 96.2837-83.812Q96.2837-84.4452 96.0251-84.9701Q95.7664-85.495 95.3171-85.9779L72.7493-108.218Q72.1306-108.787 71.5649-109.036Q70.9991-109.285 70.3659-109.285Q69.7327-109.285 69.1666-109.036Q68.6005-108.787 67.9825-108.218L45.3995-85.9779Q44.9005-85.495 44.659-84.9701Q44.4176-84.4452 44.4176-83.812Q44.4176-82.5607 45.2663-81.7135Q46.1151-80.8662 47.3663-80.8662Q48.7343-80.8662 49.6941-81.897L60.981-93.4715L67.3187-99.9596L67.0677-90.8943L67.0677-21.534Q67.0677-20.2187 68.042-19.2612Q69.0163-18.3037 70.3659-18.3037Z"/>
  </g>
  <g id="Thin-L" transform="matrix(1 0 0 1 787.278 1556)">
   <path class="hierarchical-0:secondary SFSymbolsPreview4D4D4D" d="M32.6683 28.717L105.621 28.717Q113.793 28.717 118.009 24.4308Q122.224 20.1447 122.224 12.1193L122.224-54.7928Q122.224-62.8181 118.009-67.0975Q113.793-71.3768 105.621-71.3768L86.9904-71.3768L86.9904-67.4454L105.461-67.4454Q111.545-67.4454 114.919-64.1972Q118.293-60.9489 118.293-54.5998L118.293 11.9255Q118.293 18.2892 114.919 21.5302Q111.545 24.7711 105.461 24.7711L32.8285 24.7711Q26.506 24.7711 23.2513 21.5302Q19.9966 18.2892 19.9966 11.9255L19.9966-54.5998Q19.9966-60.9489 23.2513-64.1972Q26.506-67.4454 32.8285-67.4454L51.4183-67.4454L51.4183-71.3768L32.6683-71.3768Q24.5102-71.3768 20.2873-67.157Q16.0645-62.9372 16.0645-54.7928L16.0645 12.1193Q16.0645 20.2637 20.2873 24.4904Q24.5102 28.717 32.6683 28.717Z"/>
   <path class="hierarchical-1:primary SFSymbolsPreview212121" d="M69.1444-18.4235Q69.9532-18.4235 70.5372-19.001Q71.1212-19.5786 71.1212-20.3728L71.1212-93.3159L70.9908-102.031L78.8597-94.072L91.4688-81.3965Q92.1135-80.7465 92.8871-80.7465Q93.5623-80.7465 94.1124-81.2931Q94.6625-81.8398 94.6625-82.5508Q94.6625-82.9239 94.5141-83.2382Q94.3657-83.5526 94.0956-83.8364L70.5467-107.397Q70.2095-107.686 69.8635-107.845Q69.5175-108.004 69.1444-108.004Q68.7714-108.004 68.4258-107.845Q68.0801-107.686 67.7422-107.397L44.1582-83.8364Q43.84-83.5526 43.6985-83.2382Q43.557-82.9239 43.557-82.5508Q43.557-81.8398 44.0754-81.2931Q44.5938-80.7465 45.3049-80.7465Q46.0922-80.7465 46.772-81.3965L59.3597-94.072L67.2989-102.101L67.1677-93.3159L67.1677-20.3728Q67.1677-19.5786 67.7517-19.001Q68.3357-18.4235 69.1444-18.4235Z"/>
  </g>
  <g id="Ultralight-L" transform="matrix(1 0 0 1 491.192 1556)">
   <path class="hierarchical-0:secondary SFSymbolsPreview4D4D4D" d="M31.971 28.1631L105.067 28.1631Q112.86 28.1631 116.917 24.0154Q120.974 19.8677 120.974 12.2215L120.974-55.5931Q120.974-63.2385 116.917-67.3847Q112.86-71.5309 105.067-71.5309L86.2007-71.5309L86.2007-68.9728L104.917-68.9728Q111.309-68.9728 114.862-65.5609Q118.416-62.149 118.416-55.471L118.416 12.1002Q118.416 18.7813 114.862 22.1916Q111.309 25.602 104.917 25.602L32.1205 25.602Q25.4494 25.602 22.0356 22.1916Q18.6218 18.7813 18.6218 12.1002L18.6218-55.471Q18.6218-62.149 22.0356-65.5609Q25.4494-68.9728 32.1205-68.9728L50.9773-68.9728L50.9773-71.5309L31.971-71.5309Q24.1814-71.5309 20.1229-67.4545Q16.0645-63.3781 16.0645-55.5931L16.0645 12.2215Q16.0645 20.0073 20.1229 24.0852Q24.1814 28.1631 31.971 28.1631Z"/>
   <path class="hierarchical-1:primary SFSymbolsPreview212121" d="M68.5188-18.4853Q69.0506-18.4853 69.4347-18.8675Q69.8189-19.2497 69.8189-19.7784L69.8189-94.5572L69.7495-103.108L78.4187-94.3802L91.7145-81.1401Q92.2058-80.6847 92.6918-80.6847Q93.0809-80.6847 93.4563-81.0776Q93.8316-81.4705 93.8316-81.9046Q93.8316-82.1449 93.7397-82.3517Q93.6478-82.5584 93.47-82.7385L69.4191-106.976Q69.2245-107.121 68.9919-107.235Q68.7592-107.348 68.5188-107.348Q68.2793-107.348 68.0462-107.235Q67.8131-107.121 67.6193-106.976L43.5226-82.7385Q43.2961-82.5584 43.206-82.3517Q43.116-82.1449 43.116-81.9046Q43.116-81.4705 43.4654-81.0776Q43.8148-80.6847 44.2482-80.6847Q44.738-80.6847 45.2744-81.1401L58.5289-94.3802L67.2882-103.199L67.2195-94.5572L67.2195-19.7784Q67.2195-19.2497 67.6033-18.8675Q67.9871-18.4853 68.5188-18.4853Z"/>
  </g>
  <g id="Black-M" transform="matrix(1 0 0 1 2873.24 1126)">
   <path class="hierarchical-0:secondary SFSymbolsPreview4D4D4D" d="M31.5918 17.9688L88.7207 17.9688Q97.8027 17.9688 102.832 12.9395Q107.861 7.91016 107.861-1.17188L107.861-46.1914Q107.861-55.2734 102.832-60.3027Q97.8027-65.332 88.7207-65.332L77.1973-65.332L77.1973-47.998L86.084-47.998Q88.3301-47.998 89.4287-46.9971Q90.5273-45.9961 90.5273-43.5547L90.5273-3.80859Q90.5273-1.41602 89.4287-0.390625Q88.3301 0.634766 86.084 0.634766L34.2285 0.634766Q31.9824 0.634766 30.8838-0.390625Q29.7852-1.41602 29.7852-3.80859L29.7852-43.5547Q29.7852-45.9961 30.8838-46.9971Q31.9824-47.998 34.2285-47.998L43.6035-47.998L43.6035-65.332L31.5918-65.332Q22.5586-65.332 17.5049-60.3027Q12.4512-55.2734 12.4512-46.1914L12.4512-1.17188Q12.4512 7.91016 17.5049 12.9395Q22.5586 17.9688 31.5918 17.9688Z"/>
   <path class="hierarchical-1:primary SFSymbolsPreview212121" d="M60.1562-24.0234Q63.3301-24.0234 65.4541-26.2207Q67.5781-28.418 67.5781-31.3965L67.5781-76.3184L66.8945-83.3008L68.7012-79.1992L73.0957-74.5605Q75.0488-72.5098 77.832-72.5098Q80.127-72.5098 82.0801-74.1699Q84.0332-75.8301 84.0332-78.4668Q84.0332-80.9082 82.1777-82.8125L66.2598-97.998Q64.7949-99.4629 63.2324-100.049Q61.6699-100.635 60.1562-100.635Q58.6426-100.635 57.1045-100.049Q55.5664-99.4629 54.0527-97.998L38.1348-82.8125Q36.2793-80.9082 36.2793-78.4668Q36.2793-75.8301 38.2324-74.1699Q40.1855-72.5098 42.4805-72.5098Q45.2637-72.5098 47.2168-74.5605L51.6113-79.1992L53.418-83.3008L52.7344-76.3184L52.7344-31.3965Q52.7344-28.418 54.8828-26.2207Q57.0312-24.0234 60.1562-24.0234Z"/>
  </g>
  <g id="Heavy-M" transform="matrix(1 0 0 1 2577.56 1126)">
   <path class="hierarchical-0:secondary SFSymbolsPreview4D4D4D" d="M30.6931 17.5652L87.5565 17.5652Q96.3043 17.5652 101.051 12.8242Q105.798 8.08334 105.798-0.630188L105.798-46.5256Q105.798-55.2391 101.051-59.98Q96.3043-64.7209 87.5565-64.7209L75.5379-64.7209L75.5379-49.6231L85.508-49.6231Q88.0768-49.6231 89.3887-48.3974Q90.7005-47.1718 90.7005-44.4077L90.7005-2.74811Q90.7005-0.0213623 89.3887 1.22299Q88.0768 2.46735 85.508 2.46735L32.7301 2.46735Q30.1498 2.46735 28.8498 1.22299Q27.5497-0.0213623 27.5497-2.74811L27.5497-44.4077Q27.5497-47.1718 28.8498-48.3974Q30.1498-49.6231 32.7301-49.6231L43.0847-49.6231L43.0847-64.7209L30.6931-64.7209Q21.9826-64.7209 17.2169-59.9857Q12.4512-55.2505 12.4512-46.5256L12.4512-0.630188Q12.4512 8.09479 17.2169 12.83Q21.9826 17.5652 30.6931 17.5652Z"/>
   <path class="hierarchical-1:primary SFSymbolsPreview212121" d="M59.1194-23.5397Q61.924-23.5397 63.8176-25.4833Q65.7112-27.4269 65.7112-30.0713L65.7112-76.226L65.1199-83.2893L67.2722-79.3373L72.3808-73.9265Q74.115-72.0833 76.622-72.0833Q78.7323-72.0833 80.4665-73.5821Q82.2006-75.0809 82.2006-77.4529Q82.2006-79.6402 80.5069-81.3721L64.4501-96.73Q63.1584-98.0225 61.8092-98.5394Q60.4599-99.0562 59.1194-99.0562Q57.7896-99.0562 56.459-98.5394Q55.1285-98.0225 53.788-96.73L37.7312-81.3721Q36.0489-79.6402 36.0489-77.4529Q36.0489-75.0809 37.7716-73.5821Q39.4943-72.0833 41.6161-72.0833Q44.1345-72.0833 45.8687-73.9265L50.9659-79.3373L53.1296-83.2893L52.5383-76.226L52.5383-30.0713Q52.5383-27.4269 54.4506-25.4833Q56.3629-23.5397 59.1194-23.5397Z"/>
  </g>
  <g id="Bold-M" transform="matrix(1 0 0 1 2282.01 1126)">
   <path class="hierarchical-0:secondary SFSymbolsPreview4D4D4D" d="M29.6875 17.1143L86.2549 17.1143Q94.6289 17.1143 99.0601 12.6953Q103.491 8.27637 103.491-0.0244141L103.491-46.8994Q103.491-55.2002 99.0601-59.6191Q94.6289-64.0381 86.2549-64.0381L73.6816-64.0381L73.6816-51.4404L84.8633-51.4404Q87.793-51.4404 89.3433-49.9634Q90.8936-48.4863 90.8936-45.3613L90.8936-1.5625Q90.8936 1.53809 89.3433 3.02734Q87.793 4.5166 84.8633 4.5166L31.0547 4.5166Q28.1006 4.5166 26.5747 3.02734Q25.0488 1.53809 25.0488-1.5625L25.0488-45.3613Q25.0488-48.4863 26.5747-49.9634Q28.1006-51.4404 31.0547-51.4404L42.5049-51.4404L42.5049-64.0381L29.6875-64.0381Q21.3379-64.0381 16.8945-59.6313Q12.4512-55.2246 12.4512-46.8994L12.4512-0.0244141Q12.4512 8.30078 16.8945 12.7075Q21.3379 17.1143 29.6875 17.1143Z"/>
   <path class="hierarchical-1:primary SFSymbolsPreview212121" d="M57.959-22.998Q60.3516-22.998 61.9873-24.6582Q63.623-26.3184 63.623-28.5889L63.623-76.123L63.1348-83.2764L65.6738-79.4922L71.582-73.2178Q73.0713-71.6064 75.2686-71.6064Q77.1729-71.6064 78.6621-72.9248Q80.1514-74.2432 80.1514-76.3184Q80.1514-78.2227 78.6377-79.7607L62.4268-95.3125Q61.3281-96.4111 60.2173-96.8506Q59.1064-97.29 57.959-97.29Q56.8359-97.29 55.7373-96.8506Q54.6387-96.4111 53.4912-95.3125L37.2803-79.7607Q35.791-78.2227 35.791-76.3184Q35.791-74.2432 37.2559-72.9248Q38.7207-71.6064 40.6494-71.6064Q42.8711-71.6064 44.3604-73.2178L50.2441-79.4922L52.8076-83.2764L52.3193-76.123L52.3193-28.5889Q52.3193-26.3184 53.9673-24.6582Q55.6152-22.998 57.959-22.998Z"/>
  </g>
  <g id="Semibold-M" transform="matrix(1 0 0 1 1986.09 1126)">
   <path class="hierarchical-0:secondary SFSymbolsPreview4D4D4D" d="M28.994 16.803L85.3577 16.803Q93.4738 16.803 97.6871 12.6064Q101.9 8.40988 101.9 0.392914L101.9-47.1573Q101.9-55.1735 97.6871-59.3704Q93.4738-63.5674 85.3577-63.5674L72.4022-63.5674L72.4022-52.6932L84.4193-52.6932Q87.5977-52.6932 89.3124-51.0429Q91.0271-49.3927 91.0271-46.019L91.0271-0.744629Q91.0271 2.61307 89.3124 4.27132Q87.5977 5.92957 84.4193 5.92957L29.8996 5.92957Q26.6876 5.92957 25.0061 4.27132Q23.3246 2.61307 23.3246-0.744629L23.3246-46.019Q23.3246-49.3927 25.0061-51.0429Q26.6876-52.6932 29.8996-52.6932L42.1051-52.6932L42.1051-63.5674L28.994-63.5674Q20.8939-63.5674 16.6725-59.3872Q12.4512-55.2071 12.4512-47.1573L12.4512 0.392914Q12.4512 8.44269 16.6725 12.6228Q20.8939 16.803 28.994 16.803Z"/>
   <path class="hierarchical-1:primary SFSymbolsPreview212121" d="M57.1594-22.625Q59.2674-22.625 60.7254-24.0894Q62.1834-25.5539 62.1834-27.5665L62.1834-76.0521L61.7661-83.2672L64.5721-79.599L71.0312-72.7287Q72.3511-71.2776 74.3355-71.2776Q76.0979-71.2776 77.4181-72.4716Q78.7384-73.6656 78.7384-75.5363Q78.7384-77.2453 77.3491-78.6499L61.0313-94.3352Q60.0662-95.3003 59.1198-95.6863Q58.1734-96.0724 57.1594-96.0724Q56.1783-96.0724 55.2395-95.6863Q54.3007-95.3003 53.2867-94.3352L36.969-78.6499Q35.6133-77.2453 35.6133-75.5363Q35.6133-73.6656 36.9003-72.4716Q38.1874-71.2776 39.9826-71.2776Q41.9998-71.2776 43.3205-72.7287L49.7467-79.599L52.5856-83.2672L52.1683-76.0521L52.1683-27.5665Q52.1683-25.5539 53.6339-24.0894Q55.0995-22.625 57.1594-22.625Z"/>
  </g>
  <g id="Medium-M" transform="matrix(1 0 0 1 1689.98 1126)">
   <path class="hierarchical-0:secondary SFSymbolsPreview4D4D4D" d="M28.4691 16.5672L84.6764 16.5672Q92.598 16.5672 96.6461 12.5389Q100.694 8.51059 100.694 0.710297L100.694-47.3526Q100.694-55.1537 96.6461-59.182Q92.598-63.2103 84.6764-63.2103L71.4317-63.2103L71.4317-53.6438L84.082-53.6438Q87.4489-53.6438 89.2883-51.862Q91.1278-50.0801 91.1278-46.5179L91.1278-0.125122Q91.1278 3.42865 89.2883 5.21469Q87.4489 7.00073 84.082 7.00073L29.0237 7.00073Q25.6165 7.00073 23.8171 5.21469Q22.0177 3.42865 22.0177-0.125122L22.0177-46.5179Q22.0177-50.0801 23.8171-51.862Q25.6165-53.6438 29.0237-53.6438L41.8015-53.6438L41.8015-63.2103L28.4691-63.2103Q20.5566-63.2103 16.5039-59.2018Q12.4512-55.1933 12.4512-47.3526L12.4512 0.710297Q12.4512 8.55103 16.5039 12.5591Q20.5566 16.5672 28.4691 16.5672Z"/>
   <path class="hierarchical-1:primary SFSymbolsPreview212121" d="M56.5529-22.3419Q58.445-22.3419 59.7683-23.6584Q61.0916-24.9748 61.0916-26.7921L61.0916-75.9979L60.7285-83.2611L63.736-79.6799L70.6131-72.3587Q71.8056-71.0281 73.6282-71.0281Q75.2823-71.0281 76.4748-72.1279Q77.6672-73.2277 77.6672-74.9435Q77.6672-76.5038 76.3718-77.8076L59.9739-93.5936Q59.1095-94.458 58.2878-94.8036Q57.4661-95.1492 56.5529-95.1492Q55.6793-95.1492 54.8622-94.8036Q54.0451-94.458 53.1319-93.5936L36.7332-77.8076Q35.4782-76.5038 35.4782-74.9435Q35.4782-73.2277 36.6306-72.1279Q37.7831-71.0281 39.4775-71.0281Q41.3399-71.0281 42.5323-72.3587L49.369-79.6799L52.417-83.2611L52.0538-75.9979L52.0538-26.7921Q52.0538-24.9748 53.3813-23.6584Q54.7089-22.3419 56.5529-22.3419Z"/>
  </g>
  <g id="Regular-M" transform="matrix(1 0 0 1 1394.06 1126)">
   <path class="hierarchical-0:secondary SFSymbolsPreview4D4D4D" d="M27.7832 16.2598L83.7891 16.2598Q91.4551 16.2598 95.2881 12.4512Q99.1211 8.64258 99.1211 1.12305L99.1211-47.6074Q99.1211-55.127 95.2881-58.9355Q91.4551-62.7441 83.7891-62.7441L70.166-62.7441L70.166-54.8828L83.6426-54.8828Q87.2559-54.8828 89.2578-52.9297Q91.2598-50.9766 91.2598-47.168L91.2598 0.683594Q91.2598 4.49219 89.2578 6.44531Q87.2559 8.39844 83.6426 8.39844L27.8809 8.39844Q24.2188 8.39844 22.2656 6.44531Q20.3125 4.49219 20.3125 0.683594L20.3125-47.168Q20.3125-50.9766 22.2656-52.9297Q24.2188-54.8828 27.8809-54.8828L41.4062-54.8828L41.4062-62.7441L27.7832-62.7441Q20.1172-62.7441 16.2842-58.96Q12.4512-55.1758 12.4512-47.6074L12.4512 1.12305Q12.4512 8.69141 16.2842 12.4756Q20.1172 16.2598 27.7832 16.2598Z"/>
   <path class="hierarchical-1:primary SFSymbolsPreview212121" d="M55.7617-21.9727Q57.373-21.9727 58.5205-23.0957Q59.668-24.2188 59.668-25.7812L59.668-75.9277L59.375-83.252L62.6465-79.7852L70.0684-71.875Q71.0938-70.7031 72.7051-70.7031Q74.2188-70.7031 75.2441-71.6797Q76.2695-72.6562 76.2695-74.1699Q76.2695-75.5371 75.0977-76.709L58.5938-92.627Q57.8613-93.3594 57.2021-93.6523Q56.543-93.9453 55.7617-93.9453Q55.0293-93.9453 54.3701-93.6523Q53.7109-93.3594 52.9297-92.627L36.4258-76.709Q35.3027-75.5371 35.3027-74.1699Q35.3027-72.6562 36.2793-71.6797Q37.2559-70.7031 38.8184-70.7031Q40.4785-70.7031 41.5039-71.875L48.877-79.7852L52.1973-83.252L51.9043-75.9277L51.9043-25.7812Q51.9043-24.2188 53.0518-23.0957Q54.1992-21.9727 55.7617-21.9727Z"/>
  </g>
  <g id="Light-M" transform="matrix(1 0 0 1 1098.18 1126)">
   <path class="hierarchical-0:secondary SFSymbolsPreview4D4D4D" d="M26.8448 15.5334L83.0627 15.5334Q90.2138 15.5334 93.8351 11.9064Q97.4564 8.27942 97.4564 1.25961L97.4564-48.6671Q97.4564-55.687 93.8351-59.314Q90.2138-62.941 83.0627-62.941L69.1216-62.941L69.1216-56.8962L82.9163-56.8962Q86.953-56.8962 89.1895-54.731Q91.4261-52.5658 91.4261-48.3337L91.4261 0.925446Q91.4261 5.15823 89.1895 7.32307Q86.953 9.48792 82.9163 9.48792L26.9577 9.48792Q22.8264 9.48792 20.6612 7.32307Q18.4959 5.15823 18.4959 0.925446L18.4959-48.3337Q18.4959-52.5658 20.6612-54.731Q22.8264-56.8962 26.9577-56.8962L40.8157-56.8962L40.8157-62.941L26.8448-62.941Q19.693-62.941 16.0721-59.346Q12.4512-55.751 12.4512-48.6671L12.4512 1.25961Q12.4512 8.34351 16.0721 11.9385Q19.693 15.5334 26.8448 15.5334Z"/>
   <path class="hierarchical-1:primary SFSymbolsPreview212121" d="M54.9446-22.0634Q56.1775-22.0634 57.0599-22.929Q57.9422-23.7946 57.9422-24.9939L57.9422-77.5627L57.7248-84.6748L62.0712-80.1788L70.3712-71.5424Q71.1998-70.6276 72.4327-70.6276Q73.5832-70.6276 74.374-71.3921Q75.1648-72.1565 75.1648-73.3223Q75.1648-74.3713 74.2653-75.2708L57.1106-92.067Q56.5598-92.6178 56.0444-92.8425Q55.529-93.0672 54.9446-93.0672Q54.3785-93.0672 53.8631-92.8425Q53.3478-92.6178 52.7634-92.067L35.5782-75.2708Q34.7122-74.3713 34.7122-73.3223Q34.7122-72.1565 35.4694-71.3921Q36.2267-70.6276 37.426-70.6276Q38.6925-70.6276 39.5058-71.5424L47.7875-80.1788L52.182-84.6901L51.9646-77.5627L51.9646-24.9939Q51.9646-23.7946 52.8473-22.929Q53.73-22.0634 54.9446-22.0634Z"/>
  </g>
  <g id="Thin-M" transform="matrix(1 0 0 1 802.57 1126)">
   <path class="hierarchical-0:secondary SFSymbolsPreview4D4D4D" d="M25.6035 14.5721L82.1014 14.5721Q88.5727 14.5721 91.9132 11.1855Q95.2538 7.79877 95.2538 1.43967L95.2538-50.0679Q95.2538-56.4278 91.9132-59.8145Q88.5727-63.2011 82.1014-63.2011L67.7406-63.2011L67.7406-59.5581L81.955-59.5581Q86.5524-59.5581 89.0995-57.1129Q91.6466-54.6677 91.6466-49.8749L91.6466 1.24588Q91.6466 6.03867 89.0995 8.48427Q86.5524 10.9299 81.955 10.9299L25.7362 10.9299Q20.9846 10.9299 18.5394 8.48427Q16.0942 6.03867 16.0942 1.24588L16.0942-49.8749Q16.0942-54.6677 18.5394-57.1129Q20.9846-59.5581 25.7362-59.5581L40.0352-59.5581L40.0352-63.2011L25.6035-63.2011Q19.133-63.2011 15.7921-59.8564Q12.4512-56.5117 12.4512-50.0679L12.4512 1.43967Q12.4512 7.88269 15.7921 11.2274Q19.133 14.5721 25.6035 14.5721Z"/>
   <path class="hierarchical-1:primary SFSymbolsPreview212121" d="M53.8635-22.1832Q54.5959-22.1832 55.1281-22.7089Q55.6602-23.2346 55.6602-23.9532L55.6602-79.7241L55.5428-86.5562L61.3106-80.6992L70.7718-71.1014Q71.3402-70.5276 72.0726-70.5276Q72.7425-70.5276 73.2227-71.0117Q73.703-71.4958 73.703-72.2015Q73.703-72.8302 73.1644-73.3696L55.1483-91.3261Q54.8378-91.6367 54.5128-91.7713Q54.1878-91.906 53.8635-91.906Q53.5179-91.906 53.1925-91.7713Q52.8671-91.6367 52.5429-91.3261L34.4574-73.3696Q33.9317-72.8302 33.9317-72.2015Q33.9317-71.4958 34.3987-71.0117Q34.8656-70.5276 35.5843-70.5276Q36.3304-70.5276 36.8637-71.1014L46.3455-80.6992L52.1622-86.5913L52.0447-79.7241L52.0447-23.9532Q52.0447-23.2346 52.5772-22.7089Q53.1097-22.1832 53.8635-22.1832Z"/>
  </g>
  <g id="Ultralight-M" transform="matrix(1 0 0 1 506.423 1126)">
   <path class="hierarchical-0:secondary SFSymbolsPreview4D4D4D" d="M24.968 14.08L81.6093 14.08Q87.7312 14.08 90.9286 10.8166Q94.1261 7.5531 94.1261 1.53198L94.1261-50.7858Q94.1261-56.8069 90.9286-60.0708Q87.7312-63.3347 81.6093-63.3347L67.0326-63.3347L67.0326-60.9222L81.4629-60.9222Q86.348-60.9222 89.0537-58.3336Q91.7595-55.7449 91.7595-50.6645L91.7595 1.40991Q91.7595 6.49033 89.0537 9.07898Q86.348 11.6676 81.4629 11.6676L25.1106 11.6676Q20.0409 11.6676 17.4522 9.07898Q14.8636 6.49033 14.8636 1.40991L14.8636-50.6645Q14.8636-55.7449 17.4522-58.3336Q20.0409-60.9222 25.1106-60.9222L39.6355-60.9222L39.6355-63.3347L24.968-63.3347Q18.8454-63.3347 15.6483-60.1181Q12.4512-56.9016 12.4512-50.7858L12.4512 1.53198Q12.4512 7.64694 15.6483 10.8635Q18.8454 14.08 24.968 14.08Z"/>
   <path class="hierarchical-1:primary SFSymbolsPreview212121" d="M53.3096-22.245Q53.7857-22.245 54.1386-22.596Q54.4914-22.9469 54.4914-23.42L54.4914-80.8319L54.425-87.5206L60.9207-80.9662L70.9763-70.8763Q71.4119-70.4758 71.888-70.4758Q72.3114-70.4758 72.633-70.8168Q72.9546-71.1578 72.9546-71.627Q72.9546-72.0406 72.5998-72.3953L54.1435-90.947Q53.9558-91.1346 53.7281-91.2231Q53.5004-91.3116 53.3096-91.3116Q53.0769-91.3116 52.8492-91.2231Q52.6215-91.1346 52.43-90.947L33.8829-72.3953Q33.532-72.0406 33.532-71.627Q33.532-71.1578 33.8501-70.8168Q34.1682-70.4758 34.6405-70.4758Q35.1204-70.4758 35.5095-70.8763L45.6078-80.9662L52.1515-87.5656L52.0859-80.8319L52.0859-23.42Q52.0859-22.9469 52.4387-22.596Q52.7916-22.245 53.3096-22.245Z"/>
  </g>
  <g id="Black-S" transform="matrix(1 0 0 1 2885.99 696)">
   <path class="hierarchical-0:secondary SFSymbolsPreview4D4D4D" d="M25 6.54297L69.8242 6.54297Q77.002 6.54297 81.0303 2.51465Q85.0586-1.51367 85.0586-8.69141L85.0586-43.7988Q85.0586-50.9766 81.0303-55.0049Q77.002-59.0332 69.8242-59.0332L60.9375-59.0332L60.9375-44.873L67.5781-44.873Q69.2871-44.873 70.0928-44.1406Q70.8984-43.4082 70.8984-41.5527L70.8984-10.9375Q70.8984-9.13086 70.0928-8.37402Q69.2871-7.61719 67.5781-7.61719L27.2461-7.61719Q25.5859-7.61719 24.7559-8.37402Q23.9258-9.13086 23.9258-10.9375L23.9258-41.5527Q23.9258-43.4082 24.7559-44.1406Q25.5859-44.873 27.2461-44.873L34.2773-44.873L34.2773-59.0332L25-59.0332Q17.8223-59.0332 13.7939-55.0049Q9.76562-50.9766 9.76562-43.7988L9.76562-8.69141Q9.76562-1.51367 13.7939 2.51465Q17.8223 6.54297 25 6.54297Z"/>
   <path class="hierarchical-1:primary SFSymbolsPreview212121" d="M47.4121-26.6113Q50-26.6113 51.709-28.3936Q53.418-30.1758 53.418-32.5684L53.418-67.5293L52.8809-72.998L54.248-69.6777L57.5195-66.2109Q59.082-64.5508 61.3281-64.5508Q63.1836-64.5508 64.7705-65.8936Q66.3574-67.2363 66.3574-69.3848Q66.3574-71.3379 64.8438-72.8516L52.3926-84.7656Q51.1719-85.9375 49.9268-86.4258Q48.6816-86.9141 47.4121-86.9141Q46.1914-86.9141 44.9219-86.4258Q43.6523-85.9375 42.4316-84.7656L29.9805-72.8516Q28.4668-71.3379 28.4668-69.3848Q28.4668-67.2363 30.0537-65.8936Q31.6406-64.5508 33.4961-64.5508Q35.7422-64.5508 37.3047-66.2109L40.5762-69.6777L41.9434-72.998L41.4062-67.5293L41.4062-32.5684Q41.4062-30.1758 43.1396-28.3936Q44.873-26.6113 47.4121-26.6113Z"/>
  </g>
  <g id="Heavy-S" transform="matrix(1 0 0 1 2590.05 696)">
   <path class="hierarchical-0:secondary SFSymbolsPreview4D4D4D" d="M24.3431 6.28967L68.9255 6.28967Q75.8842 6.28967 79.6936 2.48604Q83.503-1.3176 83.503-8.25348L83.503-43.9369Q83.503-50.8728 79.6936-54.6764Q75.8842-58.4801 68.9255-58.4801L59.6581-58.4801L59.6581-45.9908L67.186-45.9908Q69.1139-45.9908 70.0695-45.1027Q71.0251-44.2146 71.0251-42.1402L71.0251-10.0502Q71.0251-8.01315 70.0695-7.1064Q69.1139-6.19965 67.186-6.19965L26.0818-6.19965Q24.1913-6.19965 23.2174-7.1064Q22.2435-8.01315 22.2435-10.0502L22.2435-42.1402Q22.2435-44.2146 23.2174-45.1027Q24.1913-45.9908 26.0818-45.9908L33.9088-45.9908L33.9088-58.4801L24.3431-58.4801Q17.3958-58.4801 13.5807-54.6764Q9.76562-50.8728 9.76562-43.9369L9.76562-8.25348Q9.76562-1.3176 13.5807 2.48604Q17.3958 6.28967 24.3431 6.28967Z"/>
   <path class="hierarchical-1:primary SFSymbolsPreview212121" d="M46.6286-26.1848Q48.9395-26.1848 50.4929-27.7828Q52.0462-29.3808 52.0462-31.543L52.0462-67.2409L51.5671-72.802L53.0952-69.7357L56.8626-65.715Q58.2642-64.2052 60.3256-64.2052Q62.0659-64.2052 63.4972-65.4327Q64.9284-66.6603 64.9284-68.6127Q64.9284-70.4041 63.5185-71.8025L51.033-83.7517Q49.9504-84.8083 48.8552-85.239Q47.76-85.6697 46.6286-85.6697Q45.546-85.6697 44.4321-85.239Q43.3182-84.8083 42.2241-83.7517L29.7386-71.8025Q28.3401-70.4041 28.3401-68.6127Q28.3401-66.6603 29.76-65.4327Q31.1798-64.2052 32.9315-64.2052Q34.993-64.2052 36.4059-65.715L40.1726-69.7357L41.7015-72.802L41.2216-67.2409L41.2216-31.543Q41.2216-29.3808 42.7937-27.7828Q44.3657-26.1848 46.6286-26.1848Z"/>
  </g>
  <g id="Bold-S" transform="matrix(1 0 0 1 2294.21 696)">
   <path class="hierarchical-0:secondary SFSymbolsPreview4D4D4D" d="M23.6084 6.00586L67.9199 6.00586Q74.6338 6.00586 78.1982 2.45361Q81.7627-1.09863 81.7627-7.76367L81.7627-44.0918Q81.7627-50.7568 78.1982-54.3091Q74.6338-57.8613 67.9199-57.8613L58.2275-57.8613L58.2275-47.2412L66.748-47.2412Q68.9209-47.2412 70.0439-46.1792Q71.167-45.1172 71.167-42.7979L71.167-9.05762Q71.167-6.7627 70.0439-5.68848Q68.9209-4.61426 66.748-4.61426L24.7803-4.61426Q22.6318-4.61426 21.4966-5.68848Q20.3613-6.7627 20.3613-9.05762L20.3613-42.7979Q20.3613-45.1172 21.4966-46.1792Q22.6318-47.2412 24.7803-47.2412L33.4961-47.2412L33.4961-57.8613L23.6084-57.8613Q16.9189-57.8613 13.3423-54.3091Q9.76562-50.7568 9.76562-44.0918L9.76562-7.76367Q9.76562-1.09863 13.3423 2.45361Q16.9189 6.00586 23.6084 6.00586Z"/>
   <path class="hierarchical-1:primary SFSymbolsPreview212121" d="M45.752-25.708Q47.7539-25.708 49.1333-27.0996Q50.5127-28.4912 50.5127-30.3955L50.5127-66.9189L50.0977-72.583L51.8066-69.7998L56.1279-65.1611Q57.3486-63.8184 59.2041-63.8184Q60.8154-63.8184 62.0728-64.917Q63.3301-66.0156 63.3301-67.749Q63.3301-69.3604 62.0361-70.6299L49.5117-82.6172Q48.584-83.5449 47.6562-83.9111Q46.7285-84.2773 45.752-84.2773Q44.8242-84.2773 43.8843-83.9111Q42.9443-83.5449 41.9922-82.6172L29.4678-70.6299Q28.1982-69.3604 28.1982-67.749Q28.1982-66.0156 29.4312-64.917Q30.6641-63.8184 32.2998-63.8184Q34.1553-63.8184 35.4004-65.1611L39.7217-69.7998L41.4307-72.583L41.0156-66.9189L41.0156-30.3955Q41.0156-28.4912 42.4072-27.0996Q43.7988-25.708 45.752-25.708Z"/>
  </g>
  <g id="Semibold-S" transform="matrix(1 0 0 1 1998.1 696)">
   <path class="hierarchical-0:secondary SFSymbolsPreview4D4D4D" d="M23.1018 5.81055L67.2264 5.81055Q73.7717 5.81055 77.1671 2.43149Q80.5626-0.947571 80.5626-7.42569L80.5626-44.1986Q80.5626-50.6767 77.1671-54.0558Q73.7717-57.4348 67.2264-57.4348L57.2411-57.4348L57.2411-48.1033L66.4459-48.1033Q68.7874-48.1033 70.026-46.9212Q71.2646-45.739 71.2646-43.251L71.2646-8.37326Q71.2646-5.90057 70.026-4.71077Q68.7874-3.52097 66.4459-3.52097L23.8831-3.52097Q21.5569-3.52097 20.3102-4.71077Q19.0636-5.90057 19.0636-8.37326L19.0636-43.251Q19.0636-45.739 20.3102-46.9212Q21.5569-48.1033 23.8831-48.1033L33.2115-48.1033L33.2115-57.4348L23.1018-57.4348Q16.5901-57.4348 13.1779-54.0558Q9.76562-50.6767 9.76562-44.1986L9.76562-7.42569Q9.76562-0.947571 13.1779 2.43149Q16.5901 5.81055 23.1018 5.81055Z"/>
   <path class="hierarchical-1:primary SFSymbolsPreview212121" d="M45.1477-25.3792Q46.936-25.3792 48.1956-26.6285Q49.4553-27.8778 49.4553-29.6043L49.4553-66.6969L49.0845-72.4319L50.9178-69.8441L55.6213-64.7789Q56.7177-63.5521 58.4312-63.5521Q59.9533-63.5521 61.0909-64.5618Q62.2284-65.5716 62.2284-67.1539Q62.2284-68.6401 61.0138-69.8212L48.4627-81.8352Q47.6418-82.6736 46.8296-82.9956Q46.0175-83.3176 45.1477-83.3176Q44.3268-83.3176 43.5066-82.9956Q42.6865-82.6736 41.832-81.8352L29.2809-69.8212Q28.1006-68.6401 28.1006-67.1539Q28.1006-65.5716 29.2046-64.5618Q30.3085-63.5521 31.8642-63.5521Q33.5777-63.5521 34.7069-64.7789L39.4104-69.8441L41.2437-72.4319L40.8737-66.6969L40.8737-29.6043Q40.8737-27.8778 42.1406-26.6285Q43.4074-25.3792 45.1477-25.3792Z"/>
  </g>
  <g id="Medium-S" transform="matrix(1 0 0 1 1701.85 696)">
   <path class="hierarchical-0:secondary SFSymbolsPreview4D4D4D" d="M22.718 5.66177L66.7015 5.66177Q73.1178 5.66177 76.3855 2.41432Q79.6532-0.83313 79.6532-7.1701L79.6532-44.2795Q79.6532-50.6165 76.3855-53.8639Q73.1178-57.1114 66.7015-57.1114L56.4934-57.1114L56.4934-48.7572L66.217-48.7572Q68.6867-48.7572 70.0127-47.4842Q71.3387-46.2112 71.3387-43.5951L71.3387-7.85446Q71.3387-5.24673 70.0127-3.96957Q68.6867-2.69241 66.217-2.69241L23.2018-2.69241Q20.7413-2.69241 19.4107-3.96957Q18.0801-5.24673 18.0801-7.85446L18.0801-43.5951Q18.0801-46.2112 19.4107-47.4842Q20.7413-48.7572 23.2018-48.7572L32.9964-48.7572L32.9964-57.1114L22.718-57.1114Q16.3406-57.1114 13.0531-53.8639Q9.76562-50.6165 9.76562-44.2795L9.76562-7.1701Q9.76562-0.83313 13.0531 2.41432Q16.3406 5.66177 22.718 5.66177Z"/>
   <path class="hierarchical-1:primary SFSymbolsPreview212121" d="M44.6892-25.1297Q46.3165-25.1297 47.485-26.2714Q48.6534-27.4132 48.6534-29.0047L48.6534-66.5283L48.3162-72.3175L50.2441-69.8776L55.2376-64.489Q56.2393-63.3499 57.8445-63.3499Q59.2995-63.3499 60.3458-64.2921Q61.3922-65.2344 61.3922-66.7023Q61.3922-68.0946 60.2394-69.2078L47.6677-81.2424Q46.9276-82.0137 46.2032-82.3017Q45.4788-82.5897 44.6892-82.5897Q43.9491-82.5897 43.2201-82.3017Q42.4911-82.0137 41.7107-81.2424L29.1397-69.2078Q28.0266-68.0946 28.0266-66.7023Q28.0266-65.2344 29.0329-64.2921Q30.0392-63.3499 31.5338-63.3499Q33.1398-63.3499 34.182-64.489L39.1747-69.8776L41.1026-72.3175L40.7654-66.5283L40.7654-29.0047Q40.7654-27.4132 41.9384-26.2714Q43.1114-25.1297 44.6892-25.1297Z"/>
  </g>
  <g id="Regular-S" transform="matrix(1 0 0 1 1405.73 696)">
   <path class="hierarchical-0:secondary SFSymbolsPreview4D4D4D" d="M22.2168 5.46875L66.0156 5.46875Q72.2656 5.46875 75.3662 2.39258Q78.4668-0.683594 78.4668-6.83594L78.4668-44.3848Q78.4668-50.5371 75.3662-53.6133Q72.2656-56.6895 66.0156-56.6895L55.5176-56.6895L55.5176-49.6094L65.918-49.6094Q68.5547-49.6094 69.9951-48.2178Q71.4355-46.8262 71.4355-44.043L71.4355-7.17773Q71.4355-4.39453 69.9951-3.00293Q68.5547-1.61133 65.918-1.61133L22.3145-1.61133Q19.6777-1.61133 18.2373-3.00293Q16.7969-4.39453 16.7969-7.17773L16.7969-44.043Q16.7969-46.8262 18.2373-48.2178Q19.6777-49.6094 22.3145-49.6094L32.7148-49.6094L32.7148-56.6895L22.2168-56.6895Q16.0156-56.6895 12.8906-53.6133Q9.76562-50.5371 9.76562-44.3848L9.76562-6.83594Q9.76562-0.683594 12.8906 2.39258Q16.0156 5.46875 22.2168 5.46875Z"/>
   <path class="hierarchical-1:primary SFSymbolsPreview212121" d="M44.0918-24.8047Q45.5078-24.8047 46.5576-25.8057Q47.6074-26.8066 47.6074-28.2227L47.6074-66.3086L47.3145-72.168L49.3652-69.9219L54.7363-64.1113Q55.6152-63.0859 57.0801-63.0859Q58.4473-63.0859 59.375-63.9404Q60.3027-64.7949 60.3027-66.1133Q60.3027-67.3828 59.2285-68.4082L46.6309-80.4688Q45.9961-81.1523 45.3857-81.3965Q44.7754-81.6406 44.0918-81.6406Q43.457-81.6406 42.8467-81.3965Q42.2363-81.1523 41.5527-80.4688L28.9551-68.4082Q27.9297-67.3828 27.9297-66.1133Q27.9297-64.7949 28.8086-63.9404Q29.6875-63.0859 31.1035-63.0859Q32.5684-63.0859 33.4961-64.1113L38.8672-69.9219L40.918-72.168L40.625-66.3086L40.625-28.2227Q40.625-26.8066 41.6748-25.8057Q42.7246-24.8047 44.0918-24.8047Z"/>
  </g>
  <g id="Light-S" transform="matrix(1 0 0 1 1109.75 696)">
   <path class="hierarchical-0:secondary SFSymbolsPreview4D4D4D" d="M21.3997 4.81796L65.3648 4.81796Q71.1609 4.81796 74.0799 1.90811Q76.9989-1.00174 76.9989-6.71463L76.9989-45.3232Q76.9989-51.0368 74.0799-53.9463Q71.1609-56.8558 65.3648-56.8558L54.5944-56.8558L54.5944-51.4107L65.2672-51.4107Q68.2823-51.4107 69.9272-49.8146Q71.5721-48.2185 71.5721-45.0569L71.5721-6.9809Q71.5721-3.81927 69.9272-2.23083Q68.2823-0.642395 65.2672-0.642395L21.4973-0.642395Q18.4364-0.642395 16.8144-2.23083Q15.1924-3.81927 15.1924-6.9809L15.1924-45.0569Q15.1924-48.2185 16.8144-49.8146Q18.4364-51.4107 21.4973-51.4107L32.1999-51.4107L32.1999-56.8558L21.3997-56.8558Q15.6219-56.8558 12.6938-53.9612Q9.76562-51.0666 9.76562-45.3232L9.76562-6.71463Q9.76562-0.971222 12.6938 1.92337Q15.6219 4.81796 21.3997 4.81796Z"/>
   <path class="hierarchical-1:primary SFSymbolsPreview212121" d="M43.3655-24.8802Q44.4633-24.8802 45.2709-25.6542Q46.0785-26.4282 46.0785-27.5261L46.0785-67.762L45.8611-73.4245L48.8503-70.285L55.0087-63.8237Q55.7213-63.0104 56.8527-63.0104Q57.8873-63.0104 58.6105-63.6833Q59.3338-64.3562 59.3338-65.3717Q59.3338-66.3536 58.5022-67.1364L45.314-79.969Q44.8303-80.4863 44.3562-80.6774Q43.882-80.8685 43.3655-80.8685Q42.8665-80.8685 42.4-80.6774Q41.9334-80.4863 41.4162-79.969L28.2135-67.1364Q27.4147-66.3536 27.4147-65.3717Q27.4147-64.3562 28.0972-63.6833Q28.7796-63.0104 29.8622-63.0104Q30.9944-63.0104 31.7253-63.8237L37.8983-70.285L40.9027-73.4398L40.6853-67.762L40.6853-27.5261Q40.6853-26.4282 41.4928-25.6542Q42.3004-24.8802 43.3655-24.8802Z"/>
  </g>
  <g id="Thin-S" transform="matrix(1 0 0 1 814.011 696)">
   <path class="hierarchical-0:secondary SFSymbolsPreview4D4D4D" d="M20.3186 3.95737L64.5042 3.95737Q69.6991 3.95737 72.3778 1.26762Q75.0565-1.42212 75.0565-6.55441L75.0565-46.5645Q75.0565-51.6975 72.3778-54.3869Q69.6991-57.0763 64.5042-57.0763L53.373-57.0763L53.373-53.7926L64.4066-53.7926Q67.9222-53.7926 69.8372-51.9264Q71.7522-50.0603 71.7522-46.3982L71.7522-6.72073Q71.7522-3.05862 69.8372-1.21002Q67.9222 0.63858 64.4066 0.63858L20.4163 0.63858Q16.7953 0.63858 14.933-1.21002Q13.0707-3.05862 13.0707-6.72073L13.0707-46.3982Q13.0707-50.0603 14.933-51.9264Q16.7953-53.7926 20.4163-53.7926L31.5193-53.7926L31.5193-57.0763L20.3186-57.0763Q15.1016-57.0763 12.4336-54.422Q9.76562-51.7677 9.76562-46.5645L9.76562-6.55441Q9.76562-1.35117 12.4336 1.3031Q15.1016 3.95737 20.3186 3.95737Z"/>
   <path class="hierarchical-1:primary SFSymbolsPreview212121" d="M42.4042-24.9802Q43.0824-24.9802 43.5696-25.4539Q44.0567-25.9277 44.0567-26.6052L44.0567-69.6838L43.94-75.0854L48.1697-70.7657L55.3688-63.4438Q55.8617-62.9105 56.5529-62.9105Q57.1465-62.9105 57.5996-63.343Q58.0528-63.7756 58.0528-64.3906Q58.0528-64.9925 57.5409-65.4549L43.5722-79.3083Q43.2892-79.6059 42.9951-79.7268Q42.701-79.8477 42.4042-79.8477Q42.086-79.8477 41.8095-79.7268Q41.5329-79.6059 41.2361-79.3083L27.2324-65.4549Q26.7342-64.9925 26.7342-64.3906Q26.7342-63.7756 27.1561-63.343Q27.578-62.9105 28.2211-62.9105Q28.9124-62.9105 29.3831-63.4438L36.6173-70.7657L40.8829-75.1213L40.7654-69.6838L40.7654-26.6052Q40.7654-25.9277 41.2529-25.4539Q41.7404-24.9802 42.4042-24.9802Z"/>
  </g>
  <g id="Ultralight-S" transform="matrix(1 0 0 1 517.797 696)">
   <path class="hierarchical-0:secondary SFSymbolsPreview4D4D4D" d="M19.7647 3.51639L64.0633 3.51639Q68.9507 3.51639 71.5065 0.93956Q74.0623-1.63727 74.0623-6.47278L74.0623-47.2Q74.0623-52.0355 71.5065-54.6124Q68.9507-57.1892 64.0633-57.1892L52.7473-57.1892L52.7473-55.0133L63.9656-55.0133Q67.7376-55.0133 69.791-53.0087Q71.8445-51.004 71.8445-47.0856L71.8445-6.58722Q71.8445-2.66876 69.791-0.687027Q67.7376 1.29471 63.9656 1.29471L19.8624 1.29471Q15.9538 1.29471 13.9687-0.687027Q11.9835-2.66876 11.9835-6.58722L11.9835-47.0856Q11.9835-51.004 13.9687-53.0087Q15.9538-55.0133 19.8624-55.0133L31.1707-55.0133L31.1707-57.1892L19.7647-57.1892Q14.8346-57.1892 12.3001-54.6577Q9.76562-52.1263 9.76562-47.2L9.76562-6.47278Q9.76562-1.54648 12.3001 0.984955Q14.8346 3.51639 19.7647 3.51639Z"/>
   <path class="hierarchical-1:primary SFSymbolsPreview212121" d="M41.9121-25.032Q42.3744-25.032 42.6979-25.3517Q43.0214-25.6714 43.0214-26.1337L43.0214-70.668L42.955-75.9369L47.821-71.0114L55.5534-63.2484Q55.9334-62.8586 56.3988-62.8586Q56.7673-62.8586 57.082-63.1683Q57.3967-63.4781 57.3967-63.8885Q57.3967-64.2952 57.0488-64.5935L42.6804-78.9703Q42.4995-79.1542 42.2977-79.2397Q42.0959-79.3251 41.9121-79.3251Q41.6862-79.3251 41.5073-79.2397Q41.3284-79.1542 41.1438-78.9703L26.7303-64.5935Q26.3855-64.2952 26.3855-63.8885Q26.3855-63.4781 26.6743-63.1683Q26.963-62.8586 27.3796-62.8586Q27.8458-62.8586 28.183-63.2484L35.9612-71.0114L40.8722-75.9827L40.8066-70.668L40.8066-26.1337Q40.8066-25.6714 41.1297-25.3517Q41.4528-25.032 41.9121-25.032Z"/>
  </g>
 </g>
</svg>
